<svg width="24" height="24" viewBox="0 0 24 24" fill="none" xmlns="http://www.w3.org/2000/svg">
<path fill-rule="evenodd" clip-rule="evenodd" d="M15 21.9161C15 22.4131 14.597 22.8161 14.1 22.8161H9.29995C8.8029 22.8161 8.39995 22.4131 8.39995 21.9161C8.39995 21.419 8.8029 21.0161 9.29995 21.0161H14.1C14.597 21.0161 15 21.419 15 21.9161Z" fill="#0087E6"/>
<path fill-rule="evenodd" clip-rule="evenodd" d="M11.7 9.49607C10.8053 9.49607 10.08 10.2214 10.08 11.1161C10.08 12.0108 10.8053 12.7361 11.7 12.7361C12.5947 12.7361 13.32 12.0108 13.32 11.1161C13.32 10.2214 12.5947 9.49607 11.7 9.49607ZM8.51995 11.1161C8.51995 9.35981 9.94369 7.93607 11.7 7.93607C13.4562 7.93607 14.88 9.35981 14.88 11.1161C14.88 12.8723 13.4562 14.2961 11.7 14.2961C9.94369 14.2961 8.51995 12.8723 8.51995 11.1161Z" fill="#0087E6"/>
<path fill-rule="evenodd" clip-rule="evenodd" d="M13.2538 0.687387C12.4206 -0.229128 10.9793 -0.22913 10.1461 0.687387L8.15473 2.87787C5.99606 5.2524 4.79995 8.34627 4.79995 11.5554V11.9433L2.51797 14.2253C1.67406 15.0692 1.19995 16.2138 1.19995 17.4072V21.3161C1.19995 21.6653 1.40197 21.983 1.71821 22.1311C2.03446 22.2792 2.40784 22.231 2.67612 22.0075L4.98078 20.0869C5.36159 19.7696 5.68278 19.3955 5.93614 18.9823C6.22479 19.1317 6.55252 19.2161 6.89995 19.2161H16.5C16.8474 19.2161 17.1751 19.1317 17.4638 18.9823C17.7171 19.3955 18.0383 19.7696 18.4191 20.0869L20.7238 22.0075C20.9921 22.231 21.3654 22.2792 21.6817 22.1311C21.9979 21.983 22.2 21.6653 22.2 21.3161V17.4072C22.2 16.2138 21.7258 15.0692 20.8819 14.2253L18.6 11.9433V11.5554C18.6 8.34627 17.4038 5.2524 15.2452 2.87788L13.2538 0.687387ZM11.9219 1.8982C11.8029 1.76727 11.597 1.76727 11.478 1.8982L9.48662 4.08868C7.62916 6.13188 6.59995 8.79405 6.59995 11.5554V17.1161C6.59995 17.2818 6.73427 17.4161 6.89995 17.4161H16.5C16.6656 17.4161 16.8 17.2818 16.8 17.1161V11.5554C16.8 8.79405 15.7707 6.13189 13.9133 4.08869L11.9219 1.8982ZM18.6 14.4889V16.6299C18.6 17.4312 18.9559 18.1911 19.5715 18.7041L20.4 19.3945V17.4072C20.4 16.6912 20.1155 16.0044 19.6091 15.4981L18.6 14.4889ZM4.79995 14.4889V16.6299C4.79995 17.4312 4.44403 18.1911 3.82845 18.7041L2.99995 19.3945V17.4072C2.99995 16.6912 3.28442 16.0044 3.79076 15.4981L4.79995 14.4889Z" fill="#0087E6"/>
<path fill-rule="evenodd" clip-rule="evenodd" d="M8.51995 11.1161C8.51995 9.35981 9.94369 7.93607 11.7 7.93607C13.4562 7.93607 14.88 9.35981 14.88 11.1161C14.88 12.8723 13.4562 14.2961 11.7 14.2961C9.94369 14.2961 8.51995 12.8723 8.51995 11.1161ZM11.7 9.49607C10.8053 9.49607 10.08 10.2214 10.08 11.1161C10.08 12.0108 10.8053 12.7361 11.7 12.7361C12.5947 12.7361 13.32 12.0108 13.32 11.1161C13.32 10.2214 12.5947 9.49607 11.7 9.49607Z" fill="#0087E6"/>
</svg>
