<svg width="24" height="24" viewBox="0 0 24 24" fill="none" xmlns="http://www.w3.org/2000/svg">
<g clip-path="url(#clip0_194_17332)">
<path fill-rule="evenodd" clip-rule="evenodd" d="M3.02476 11.4999C2.7065 11.4999 2.42476 11.7817 2.42476 12.0999V17.2719C2.42476 18.0854 2.70031 18.8749 3.2063 19.5116L5.2119 21.8827C5.53291 22.2622 5.48549 22.8301 5.10599 23.1511C4.72649 23.4721 4.15861 23.4246 3.83761 23.0451L1.81565 20.6547L1.80796 20.6451C1.04204 19.6877 0.62476 18.498 0.624756 17.2719V12.0999C0.624756 10.7927 1.71756 9.69991 3.02476 9.69991C4.33196 9.69991 5.42476 10.7927 5.42476 12.0999V13.7331C6.36694 13.5221 7.37492 13.9443 7.8842 14.7691L9.0162 16.4641C9.60888 17.3522 9.92515 18.3962 9.92476 19.4639V22.4639C9.92476 22.961 9.52181 23.3639 9.02476 23.3639C8.5277 23.3639 8.12476 22.961 8.12476 22.4639V19.4639C8.12507 18.7521 7.91438 18.0558 7.51931 17.4638L6.35529 15.7191C6.21558 15.4877 5.87444 15.4116 5.64964 15.5617C5.45559 15.692 5.37712 15.9613 5.46936 16.1749L6.7982 18.3864C7.05421 18.8124 6.91636 19.3653 6.49031 19.6214C6.06425 19.8774 5.51133 19.7395 5.25531 19.3135L3.88482 17.0327L3.86884 17.0005C3.7033 16.6675 3.62221 16.302 3.62877 15.9355C3.51038 14.6807 3.62476 13.3608 3.62476 12.0999C3.62476 11.7817 3.34301 11.4999 3.02476 11.4999ZM20.9755 9.69991C22.2827 9.69991 23.3755 10.7927 23.3755 12.0999V17.2719C23.3755 18.498 22.9582 19.6877 22.1923 20.6451L22.1846 20.6547L20.1626 23.0451C19.8416 23.4246 19.2738 23.4721 18.8942 23.1511C18.5147 22.8301 18.4673 22.2622 18.7883 21.8827L20.7939 19.5116C21.2999 18.8749 21.5755 18.0854 21.5755 17.2719V12.0999C21.5755 11.7817 21.2937 11.4999 20.9755 11.4999C20.6572 11.4999 20.3755 11.7817 20.3755 12.0999C20.3755 13.3604 20.4437 14.6421 20.3741 15.9004C20.3859 16.2787 20.3042 16.6569 20.1325 17.0003L20.1169 17.0315L18.7469 19.3115C18.4909 19.7375 17.938 19.8754 17.5119 19.6194C17.0859 19.3633 16.948 18.8104 17.204 18.3844L18.5335 16.1718C18.627 15.9574 18.548 15.6862 18.3524 15.5559C18.1272 15.4058 17.7855 15.4827 17.6463 15.7148L16.4812 17.4633C16.086 18.0555 15.8752 18.7516 15.8755 19.4635V22.4639C15.8755 22.961 15.4725 23.3639 14.9755 23.3639C14.4784 23.3639 14.0755 22.961 14.0755 22.4639V19.4643C14.0751 18.3966 14.3912 17.3524 14.9839 16.4643L16.1152 14.7683C16.6231 13.9413 17.6319 13.5167 18.5755 13.727V12.0999C18.5755 10.7927 19.6683 9.69991 20.9755 9.69991Z" fill="#0087E6"/>
<path fill-rule="evenodd" clip-rule="evenodd" d="M9.14021 0.6604C6.41813 0.6604 4.61923 3.01431 4.61923 5.4558C4.61923 6.81057 5.13587 8.01038 6.11184 9.18806C7.52133 10.8887 9.40028 12.2649 10.9013 13.5769C11.5259 14.1377 12.4737 14.1384 13.0988 13.5771C14.5997 12.2652 16.4793 10.8885 17.8885 9.18795C18.8645 8.01032 19.381 6.81051 19.381 5.4558C19.381 3.01435 17.5823 0.6604 14.8601 0.6604C13.7459 0.6604 12.7625 1.10689 12.0002 1.78642C11.2378 1.1068 10.2543 0.6604 9.14021 0.6604ZM9.14021 2.4604C7.60378 2.4604 6.41923 3.80541 6.41923 5.4558C6.41923 6.29344 6.71962 7.10051 7.49775 8.03948C8.76291 9.56599 10.3599 10.7215 12.0002 12.1469C13.6404 10.7214 15.2377 9.56571 16.5026 8.03941C17.2806 7.1006 17.581 6.29349 17.581 5.4558C17.581 3.80536 16.3966 2.4604 14.8601 2.4604C13.4564 2.4604 12.7281 3.65241 12 4.65884C11.2721 3.65227 10.544 2.4604 9.14021 2.4604Z" fill="#0087E6"/>
</g>
<defs>
<clipPath id="clip0_194_17332">
<rect width="24" height="24" fill="white"/>
</clipPath>
</defs>
</svg>
