<svg width="24" height="24" viewBox="0 0 24 24" fill="none" xmlns="http://www.w3.org/2000/svg">
<path fill-rule="evenodd" clip-rule="evenodd" d="M13.3217 21.5886C18.3078 15.8707 19.7999 13.3901 19.7999 9.57363C19.7999 5.28504 16.3124 1.8 11.9999 1.8C7.68741 1.8 4.1999 5.28504 4.1999 9.57363C4.1999 13.3901 5.69204 15.8707 10.6781 21.5886C11.3748 22.3876 12.625 22.3876 13.3217 21.5886ZM14.6783 22.7716C19.6629 17.0554 21.5999 14.1214 21.5999 9.57363C21.5999 4.28626 17.3018 0 11.9999 0C6.69797 0 2.3999 4.28626 2.3999 9.57363C2.3999 14.1214 4.33687 17.0554 9.32149 22.7716C10.7356 24.3932 13.2642 24.3932 14.6783 22.7716Z" fill="#0087E6"/>
<path fill-rule="evenodd" clip-rule="evenodd" d="M9.51587 10.225C9.59324 11.7299 9.94667 13.0508 10.4621 13.9367C8.86681 13.3709 7.67632 11.9499 7.442 10.225H9.51587ZM10.7677 10.225C10.8317 11.3403 11.0631 12.2964 11.3701 12.9718C11.6769 13.6468 11.9302 13.8037 11.9999 13.8396C12.0696 13.8037 12.3229 13.6468 12.6297 12.9718C12.9367 12.2964 13.1681 11.3403 13.2321 10.225H10.7677ZM13.2321 8.975H10.7677C10.8317 7.85974 11.0631 6.90358 11.3701 6.22817C11.6769 5.55319 11.9302 5.39633 11.9999 5.36036C12.0696 5.39633 12.3229 5.55319 12.6297 6.22817C12.9367 6.90358 13.1681 7.85974 13.2321 8.975ZM14.4839 10.225C14.4066 11.7299 14.0531 13.0508 13.5377 13.9367C15.133 13.3709 16.3235 11.9499 16.5578 10.225H14.4839ZM16.5578 8.975H14.4839C14.4066 7.47007 14.0531 6.1492 13.5377 5.26334C15.133 5.82906 16.3235 7.25007 16.5578 8.975ZM9.51587 8.975H7.442C7.67632 7.25007 8.86681 5.82906 10.4621 5.26334C9.94667 6.1492 9.59324 7.47007 9.51587 8.975ZM11.9999 15.6C15.3136 15.6 17.9999 12.9137 17.9999 9.6C17.9999 6.28629 15.3136 3.6 11.9999 3.6C8.68619 3.6 5.9999 6.28629 5.9999 9.6C5.9999 12.9137 8.68619 15.6 11.9999 15.6Z" fill="#0087E6"/>
</svg>
