<svg width="24" height="24" viewBox="0 0 24 24" fill="none" xmlns="http://www.w3.org/2000/svg">
<path fill-rule="evenodd" clip-rule="evenodd" d="M12 22.2C17.6333 22.2 22.2 17.6333 22.2 12C22.2 6.3667 17.6333 1.8 12 1.8C6.3667 1.8 1.8 6.3667 1.8 12C1.8 17.6333 6.3667 22.2 12 22.2ZM12 24C18.6274 24 24 18.6274 24 12C24 5.37258 18.6274 0 12 0C5.37258 0 0 5.37258 0 12C0 18.6274 5.37258 24 12 24Z" fill="#0087E6"/>
<path fill-rule="evenodd" clip-rule="evenodd" d="M10.2 8.84454V15.1555L15.1304 12L10.2 8.84454ZM8.4 7.63854C8.4 6.73766 9.39573 6.19273 10.1545 6.67835L16.9693 11.0398C17.6699 11.4882 17.6699 12.5118 16.9693 12.9602L10.1545 17.3216C9.39573 17.8073 8.4 17.2623 8.4 16.3615V7.63854Z" fill="#0087E6"/>
</svg>
